<?xml version="1.0" encoding="utf-8"?>
<!-- Generator: Adobe Illustrator 18.1.1, SVG Export Plug-In . SVG Version: 6.00 Build 0)  -->
<svg version="1.1" id="Layer_1" xmlns="http://www.w3.org/2000/svg" xmlns:xlink="http://www.w3.org/1999/xlink" x="0px" y="0px"
	 viewBox="0 0 1024 768" enable-background="new 0 0 1024 768" xml:space="preserve">
<path fill="#FFFFFF" d="M880,650.9l-783-453.3c-22.5-13-30-41.6-17.1-64.2l0,0c13-22.5,41.6-30,64.2-17.1l782.3,453.3
	c22.5,13,30,41.6,17.1,64.2l0,0C931.2,656.4,902.5,663.9,880,650.9z"/>
<path fill="#FFFFFF" d="M924.3,192.9L147.5,655.7c-21.8,13-51.2,6.1-64.2-16.4l0,0c-13-21.8-6.1-51.2,16.4-64.2l776.9-462.8
	c21.8-13,51.2-6.1,64.2,16.4l0,0C953.7,151.2,946.9,179.9,924.3,192.9z"/>
</svg>
