<?xml version="1.0" encoding="utf-8"?>
<!-- Generator: Adobe Illustrator 18.1.1, SVG Export Plug-In . SVG Version: 6.00 Build 0)  -->
<svg version="1.1" id="Layer_1" xmlns="http://www.w3.org/2000/svg" xmlns:xlink="http://www.w3.org/1999/xlink" x="0px" y="0px"
	 viewBox="0 0 1024 768" enable-background="new 0 0 1024 768" xml:space="preserve">
<path fill="#FFFFFF" d="M963.7,426H59.2c-25.9,0-47.1-21.2-47.1-47.1l0,0c0-25.9,21.2-47.1,47.1-47.1h904.5
	c25.9,0,47.1,21.2,47.1,47.1l0,0C1010.1,404.8,989,426,963.7,426z"/>
<path fill="#FFFFFF" d="M963,242.3H59.2c-25.9,0-47.1-21.2-47.1-47.1l0,0c0-25.9,21.2-47.1,47.1-47.1h904.5
	c25.9,0,47.1,21.2,47.1,47.1l0,0C1010.1,221.2,989,242.3,963,242.3z"/>
<path fill="#FFFFFF" d="M963.7,613H59.2c-25.9,0-47.1-21.2-47.1-47.1l0,0c0-25.9,21.2-47.1,47.1-47.1h904.5
	c25.9,0,47.1,21.2,47.1,47.1l0,0C1010.1,591.9,989,613,963.7,613z"/>
</svg>
