<?xml version="1.0" encoding="utf-8"?>
<!-- Generator: Adobe Illustrator 18.1.1, SVG Export Plug-In . SVG Version: 6.00 Build 0)  -->
<svg version="1.1" id="Layer_1" xmlns="http://www.w3.org/2000/svg" xmlns:xlink="http://www.w3.org/1999/xlink" x="0px" y="0px"
	 viewBox="0 0 100 100" enable-background="new 0 0 100 100" xml:space="preserve">
<g>
	<path fill="#B50938" d="M94.2,77.3h-89c-2.2,0-4-1.8-4-4V61c0-2.2,1.8-4,4-4h89c2.2,0,4,1.8,4,4v12.3
		C98.2,75.5,96.4,77.3,94.2,77.3z"/>
	<circle fill="#B50938" cx="49.7" cy="55.2" r="42.5"/>
	<g>
		<g>
			<path display="none" fill="none" stroke="#B50938" stroke-width="7" stroke-miterlimit="10" d="M88.6,75.5H9.3
				c-4.5,0-8.2-3.7-8.2-8.2v-0.5c0-4.5,3.7-8.2,8.2-8.2h79.3c4.5,0,8.2,3.7,8.2,8.2v0.5C96.8,71.8,93.1,75.5,88.6,75.5z"/>
			<circle fill="#FFFFFF" cx="49.7" cy="55.3" r="40.2"/>
			<circle fill="#663700" cx="49.7" cy="55.3" r="39"/>
			<circle fill="#B50938" stroke="#FFFFFF" stroke-miterlimit="10" cx="49.7" cy="55.3" r="30.9"/>
			<linearGradient id="SVGID_1_" gradientUnits="userSpaceOnUse" x1="49.8584" y1="65.2565" x2="49.8584" y2="43.5101">
				<stop  offset="0" style="stop-color:#C6906D"/>
				<stop  offset="0.2324" style="stop-color:#B07C54"/>
				<stop  offset="0.7241" style="stop-color:#784814"/>
				<stop  offset="0.8548" style="stop-color:#683902"/>
				<stop  offset="0.9194" style="stop-color:#663700"/>
			</linearGradient>
			<path fill="url(#SVGID_1_)" d="M19.9,47.2c17-4.6,36.3-5.1,59.6,0c0,0,1.3,6.5,1.1,9c-0.2,2.5-0.6,5.3-4.8,6.9
				c-4.2,1.7-35.7,2.8-41.2,1.8c-5.5-1-12.6-0.7-14.1-2.7c-1.5-2-1.2-6-1.2-6s-0.5-4.4,0-6.7C19.9,47.2,19.9,47.2,19.9,47.2z"/>
			<path fill="#FFCF82" d="M21,46.9c0,0,4.8-0.9,6.1-1c2.6-0.2,3.2,0.3,4.3,0.5c0.9,0.2,2.8-0.3,5.6,0.2c2,0.4,1.9,1.1-0.6,1
				c-1.9-0.1-5,2.1-1.2,2.1s9.9,0.2,8,2.1s-3.9,4.4-12.7,5.3c-8.7,0.9-10.9,1-10.9,1s-0.3,2.9,2.1,4.1c2.4,1.2,57,0,57,0l1-3.2
				c0,0-7-0.7-11.6-1.5s-7.8-2.1-7.2-4.1c0.9-2.7-5-3.4-6.8-3.9c-0.8-0.2-3.2-0.2-4.4-0.4c-1.5-0.2-2.8-0.8-2.6-1.1
				c0.3-0.5,3.8-1.7,1-1.7s-7.6,0.2-8.8-0.2s0.5-0.8,1.9-0.9c1.4-0.2,16.4-0.5,21,0c4.6,0.5,15.9,2.3,15.9,2.3l1.5,1l-0.8-1.1
				c0,0-11.2-2.8-23.3-3.6c-12.1-0.7-17.9,0.5-24.2,1.2S21,46.9,21,46.9z"/>
			<circle fill="none" stroke="#FFFFFF" stroke-miterlimit="10" cx="49.7" cy="55.3" r="30.9"/>
			<path fill="#663700" stroke="#663700" stroke-miterlimit="10" d="M83.4,74.5c-6.7,11-19.2,19.4-33.6,19.4
				c-14.3,0-26.9-8.4-33.6-19.4H83.4z"/>
			<linearGradient id="SVGID_2_" gradientUnits="userSpaceOnUse" x1="49.9937" y1="92.6889" x2="49.9937" y2="77">
				<stop  offset="0" style="stop-color:#C6906D"/>
				<stop  offset="6.636313e-002" style="stop-color:#B37E57"/>
				<stop  offset="0.1803" style="stop-color:#976438"/>
				<stop  offset="0.2993" style="stop-color:#81501F"/>
				<stop  offset="0.4239" style="stop-color:#72420E"/>
				<stop  offset="0.5575" style="stop-color:#693A03"/>
				<stop  offset="0.7165" style="stop-color:#663700"/>
			</linearGradient>
			<path fill="url(#SVGID_2_)" d="M79.5,77c-5.4,9-18.1,15.7-29.7,15.7C38.2,92.7,25.9,86,20.5,77H79.5z"/>
			<ellipse fill="#FFCF82" cx="49.9" cy="72.1" rx="15.3" ry="5.6"/>
		</g>
		<g>
			<g>
				<g>
					<g>
						<g>
							<path fill="#FFFFFF" d="M48,43h-2.1c0,0-5.5-4.2-6.1-9.9s8.2-5.5,8.2-5.5V43z"/>
							<path fill="#FFFFFF" d="M48,43h2.3c0,0,5.3-4.2,6-9.9S48,27.7,48,27.7V43z"/>
							<rect x="47.5" y="27.7" fill="#FFFFFF" width="1.6" height="14.8"/>
						</g>
						<path fill="#FFFFFF" d="M55.7,31.9c0,0,1.8-1.3,2.4-1.2c0.7,0.1,2.1,0.1,2,1.6c-0.1,1.6-0.9,1.9-2.2,2.7
							c-1.3,0.8-4.1,2.4-4.1,2.4l-1.8,2V40c0,0,6.4-3.3,7.5-4c1-0.7,2.7-2.8,2.1-4.4s-1.2-2.4-3.3-2.3c-2.2,0.1-4.2,0.7-4.2,0.7
							L55.7,31.9z"/>
					</g>
					<ellipse fill="#663700" cx="48.2" cy="31.2" rx="6.6" ry="2.6"/>
				</g>
				<path fill="#B50938" stroke="#FFCF82" stroke-width="0.3" stroke-miterlimit="10" d="M49.2,31.8c0,0-1.6-5.4-1.4-6.9
					s2.8-5.2,3.3-5.6s1.6-2,1.8-3.1c0.2-1.2,0.5-3.6,0-4.5c-0.5-0.9-3.1-3.2-3.1-3.2l-0.5,0.8c0,0,1.6,2,1.6,2.8
					c0.1,0.8-0.2,2.4-0.4,2.9c-0.2,0.5-3.4,4.6-3.4,4.6s-0.7,0.6-1.1,2.1c-0.4,1.5-0.4,5,0.5,6.6S49.2,31.8,49.2,31.8z"/>
				<path fill="#FFCF82" d="M46.6,20.3c0-0.2,0-0.4,0-0.6c0.1-1.6,0.5-3.4,1.2-4.7c0.8-1.4,2-3.4,2.8-4.5s1.7-3,1.4-5.2
					s-1.2-4.3-1.2-4.3s0,4.6-0.5,5.4C49.8,7,48.1,9.7,47.2,11s-2.4,4.8-2.5,6.2s0.1,3.8,0.3,4.6c0.2,0.8,0.8,2.2,0.8,2.2
					s0-1.2,0.3-2.5L46.6,20.3z"/>
			</g>
			<rect x="46.9" y="41.5" fill="#FFFFFF" width="2.6" height="1"/>
		</g>
		<path fill="#FFCF82" stroke="#FFFFFF" stroke-miterlimit="10" d="M93.7,74.8H5.8c-1.1,0-2-0.9-2-2V61.5c0-1.1,0.9-2,2-2h87.8
			c1.1,0,2,0.9,2,2v11.3C95.7,73.9,94.8,74.8,93.7,74.8z"/>
		<text transform="matrix(1.28 0 0 1 5.709 70.9629)"><tspan x="0" y="0" fill="#663700" font-family="'ARJULIAN'" font-size="12.3157" letter-spacing="0.8">M</tspan><tspan x="10.4" y="0" fill="#663700" font-family="'ARJULIAN'" font-size="10.2631">UD</tspan><tspan x="25.7" y="0" fill="#663700" font-family="'ARJULIAN'" font-size="11.0329" letter-spacing="0.8"> </tspan><tspan x="31.7" y="0" fill="#663700" font-family="'ARJULIAN'" font-size="12.3157" letter-spacing="0.8">C</tspan><tspan x="39.6" y="0" fill="#663700" font-family="'ARJULIAN'" font-size="10.2631">REEK</tspan></text>
		<text transform="matrix(1.16 0 0 1 28.4765 85.3711)" fill="#FFFFFF" font-family="'ARJULIAN'" font-size="10">COFFEE</text>
	</g>
</g>
</svg>
